<svg id="Layer_1" data-name="Layer 1" xmlns="http://www.w3.org/2000/svg" viewBox="0 0 33.59 10.57"><defs><style>.cls-1{fill:#f4f4f4;}.cls-2{fill:#0097f4;}</style></defs><g id="ubuntuDDE_Official_Logo_White" data-name="ubuntuDDE Official Logo White"><circle class="cls-1" cx="5.28" cy="5.28" r="5.28"/><rect class="cls-2" x="5.97" y="0.79" width="0.16" height="5.47" transform="translate(0.01 7.07) rotate(-60.61)"/><rect class="cls-2" x="5.83" y="1.22" width="0.16" height="5.48" transform="translate(-0.43 7.18) rotate(-60.78)"/><rect class="cls-2" x="3.3" y="2.62" width="0.16" height="5.16"/><rect class="cls-2" x="3.75" y="2.62" width="0.16" height="5.16"/><circle class="cls-1" cx="3.65" cy="2.41" r="1.16"/><rect class="cls-2" x="3.2" y="6.14" width="5.4" height="0.16" transform="translate(-2.28 3.64) rotate(-29.01)"/><rect class="cls-2" x="3.42" y="6.53" width="5.4" height="0.16" transform="translate(-2.44 3.8) rotate(-29.01)"/><circle class="cls-1" cx="3.68" cy="7.78" r="1.16"/><circle class="cls-1" cx="8.37" cy="5.12" r="1.16"/><circle class="cls-2" cx="3.66" cy="2.42" r="1.02"/><circle class="cls-2" cx="8.37" cy="5.12" r="1.02"/><circle class="cls-2" cx="3.68" cy="7.78" r="1.02"/><path class="cls-1" d="M14.11,6.79l-.35.07a4.07,4.07,0,0,1-.5,0,1,1,0,0,1-.41-.07.6.6,0,0,1-.27-.2.89.89,0,0,1-.15-.31,1.75,1.75,0,0,1,0-.4V4.72h.39V5.83a1,1,0,0,0,.12.56.5.5,0,0,0,.41.17h.25l.11,0h.06V4.72h.39Z"/><path class="cls-1" d="M15.14,4.81l.21-.09a1,1,0,0,1,.33,0,.84.84,0,0,1,.41.08.76.76,0,0,1,.3.23.92.92,0,0,1,.19.35,1.74,1.74,0,0,1,.06.45,1.26,1.26,0,0,1-.08.47.84.84,0,0,1-.21.35,1,1,0,0,1-.34.23,1.1,1.1,0,0,1-.44.07l-.48,0-.34-.08V3.73l.39-.06Zm0,1.7.16,0h.26a.66.66,0,0,0,.5-.2.86.86,0,0,0,.18-.58,1.63,1.63,0,0,0,0-.31.66.66,0,0,0-.11-.24.52.52,0,0,0-.19-.17A.67.67,0,0,0,15.63,5a.72.72,0,0,0-.29.06.56.56,0,0,0-.2.11Z"/><path class="cls-1" d="M18.87,6.79l-.34.07-.5,0a1,1,0,0,1-.42-.07.66.66,0,0,1-.27-.2.73.73,0,0,1-.14-.31,1.33,1.33,0,0,1-.05-.4V4.72h.38V5.83a1,1,0,0,0,.12.56.52.52,0,0,0,.42.17h.35l.07,0V4.72h.38Z"/><path class="cls-1" d="M19.53,4.78l.34-.07a2.92,2.92,0,0,1,.51,0,1.23,1.23,0,0,1,.42.07.76.76,0,0,1,.27.2.87.87,0,0,1,.14.31,1.81,1.81,0,0,1,0,.4v1.2h-.38V5.74a1.87,1.87,0,0,0,0-.34.5.5,0,0,0-.09-.23.28.28,0,0,0-.16-.12.55.55,0,0,0-.25,0h-.43V6.85h-.38Z"/><path class="cls-1" d="M22.24,4.72h.81V5h-.81V6a1.09,1.09,0,0,0,0,.26.36.36,0,0,0,.07.17.2.2,0,0,0,.12.08l.17,0a.86.86,0,0,0,.28,0l.15-.06.07.32-.2.07a.93.93,0,0,1-.33,0,.9.9,0,0,1-.36,0A.46.46,0,0,1,22,6.67a.55.55,0,0,1-.12-.27,1.55,1.55,0,0,1,0-.37V4.12l.38-.06Z"/><path class="cls-1" d="M25.23,6.79l-.35.07a4.19,4.19,0,0,1-.5,0A1,1,0,0,1,24,6.82a.6.6,0,0,1-.27-.2.89.89,0,0,1-.15-.31,1.75,1.75,0,0,1-.05-.4V4.72h.39V5.83a1,1,0,0,0,.12.56.49.49,0,0,0,.41.17h.25l.11,0h.06V4.72h.39Z"/><path class="cls-1" d="M28.24,5.43a1.76,1.76,0,0,1-.11.64,1.35,1.35,0,0,1-.33.45,1.29,1.29,0,0,1-.5.27,2,2,0,0,1-.63.08h-.38a2.5,2.5,0,0,1-.38-.06V4.05A2.5,2.5,0,0,1,26.29,4h.38a2.23,2.23,0,0,1,.63.09,1.26,1.26,0,0,1,.5.26,1.39,1.39,0,0,1,.33.46A1.72,1.72,0,0,1,28.24,5.43Zm-1.55,1.1a1.11,1.11,0,0,0,.85-.29,1.13,1.13,0,0,0,.28-.81,1.15,1.15,0,0,0-.28-.81,1.15,1.15,0,0,0-.85-.29H26.3V6.51h.39Z"/><path class="cls-1" d="M31.16,5.43a1.57,1.57,0,0,1-.11.64,1.12,1.12,0,0,1-.33.45,1.16,1.16,0,0,1-.5.27,2.25,2.25,0,0,1-.64.09,2.42,2.42,0,0,1-.37,0,1.58,1.58,0,0,1-.38-.05V4.05A2.32,2.32,0,0,1,29.21,4h.37a2.25,2.25,0,0,1,.64.09,1.26,1.26,0,0,1,.5.26,1.15,1.15,0,0,1,.33.46A1.54,1.54,0,0,1,31.16,5.43Zm-1.54,1.1a1.09,1.09,0,0,0,.84-.29,1.09,1.09,0,0,0,.28-.81,1.12,1.12,0,0,0-.28-.81,1.12,1.12,0,0,0-.84-.29h-.39V6.51h.39Z"/><path class="cls-1" d="M31.75,6.85V4h1.74v.34H32.15v.84h1.19v.33H32.15v1h1.44v.34Z"/></g></svg>