<svg id="Layer_1" data-name="Layer 1" xmlns="http://www.w3.org/2000/svg" viewBox="0 0 350 100"><defs><style>.cls-1{fill:#0097f4;}.cls-2{fill:#fff;}</style></defs><title>Artboard 4</title><g id="ubuntuDDE_Official_Logo" data-name="ubuntuDDE Official Logo"><circle class="cls-1" cx="75.16" cy="49.75" r="46.29"/><rect class="cls-2" x="81.16" y="10.41" width="1.41" height="47.93" transform="translate(11.74 88.84) rotate(-60.61)"/><rect class="cls-2" x="79.92" y="14.12" width="1.41" height="48" transform="translate(7.99 89.88) rotate(-60.78)"/><rect class="cls-2" x="57.77" y="26.44" width="1.41" height="45.19"/><rect class="cls-2" x="61.69" y="26.41" width="1.41" height="45.19"/><circle class="cls-1" cx="60.89" cy="24.62" r="10.15"/><rect class="cls-2" x="56.88" y="57.26" width="47.29" height="1.41" transform="translate(-18.01 46.32) rotate(-29.01)"/><rect class="cls-2" x="58.81" y="60.67" width="47.3" height="1.41" transform="translate(-19.42 47.69) rotate(-29.01)"/><circle class="cls-1" cx="61.07" cy="71.61" r="10.15"/><circle class="cls-1" cx="102.19" cy="48.3" r="10.15"/><circle class="cls-2" cx="60.92" cy="24.65" r="8.9"/><circle class="cls-2" cx="102.23" cy="48.33" r="8.9"/><circle class="cls-2" cx="61.1" cy="71.65" r="8.9"/><path d="M152.46,62.92c-.77.19-1.78.4-3,.61a26.71,26.71,0,0,1-4.37.33,9.39,9.39,0,0,1-3.63-.63,5.79,5.79,0,0,1-2.37-1.78,7.07,7.07,0,0,1-1.29-2.71,14,14,0,0,1-.4-3.47V44.8h3.34v9.77c0,2.27.36,3.9,1.08,4.88a4.21,4.21,0,0,0,3.61,1.48c.36,0,.73,0,1.12,0s.74-.06,1.07-.09l.92-.1a3.87,3.87,0,0,0,.59-.13V44.8h3.34Z"/><path d="M161.55,45.62a8.76,8.76,0,0,1,1.85-.82,8.62,8.62,0,0,1,2.85-.44,8.51,8.51,0,0,1,3.59.72,7.41,7.41,0,0,1,2.64,2,9,9,0,0,1,1.64,3.09,13.18,13.18,0,0,1,.55,3.95A11.79,11.79,0,0,1,174,58.2a8.72,8.72,0,0,1-1.89,3.07,8.38,8.38,0,0,1-2.94,1.94,10.51,10.51,0,0,1-3.88.68,23.73,23.73,0,0,1-4.13-.33c-1.2-.21-2.18-.43-2.95-.64V36.18l3.34-.57Zm0,14.94a8.47,8.47,0,0,0,1.42.27,15.63,15.63,0,0,0,2.27.13,5.53,5.53,0,0,0,4.31-1.78,7.23,7.23,0,0,0,1.62-5,11.61,11.61,0,0,0-.29-2.69,5.91,5.91,0,0,0-.93-2.17,4.46,4.46,0,0,0-1.67-1.44,5.5,5.5,0,0,0-2.46-.52,6.59,6.59,0,0,0-2.52.47,6.52,6.52,0,0,0-1.75,1Z"/><path d="M194.23,62.92c-.77.19-1.78.4-3,.61a26.71,26.71,0,0,1-4.37.33,9.39,9.39,0,0,1-3.63-.63,5.86,5.86,0,0,1-2.37-1.78,7.07,7.07,0,0,1-1.29-2.71,14,14,0,0,1-.4-3.47V44.8h3.34v9.77c0,2.27.36,3.9,1.08,4.88a4.21,4.21,0,0,0,3.63,1.47l1.11,0,1.08-.1c.33,0,.64-.06.91-.1a2.47,2.47,0,0,0,.6-.13V44.8h3.34Z"/><path d="M200,45.33c.76-.19,1.78-.39,3.05-.61a26.86,26.86,0,0,1,4.39-.32,9.55,9.55,0,0,1,3.7.63,5.84,5.84,0,0,1,2.35,1.76,6.83,6.83,0,0,1,1.24,2.71,15.73,15.73,0,0,1,.36,3.49V63.47h-3.34V53.7a16.12,16.12,0,0,0-.23-2.94,5.07,5.07,0,0,0-.78-2,3,3,0,0,0-1.43-1.09,6.05,6.05,0,0,0-2.23-.34l-1.11,0-1.1.09c-.34,0-.66.08-.93.13l-.6.11V63.47H200Z"/><path d="M223.72,44.8h7.08v2.79h-7.08v8.62a9.94,9.94,0,0,0,.21,2.31,3.43,3.43,0,0,0,.65,1.44,2.26,2.26,0,0,0,1.08.74,4.75,4.75,0,0,0,1.51.21,6.85,6.85,0,0,0,2.42-.34c.61-.22,1-.4,1.27-.48l.65,2.76a11.19,11.19,0,0,1-1.76.63,10,10,0,0,1-2.87.4,8.81,8.81,0,0,1-3.14-.48,4.63,4.63,0,0,1-2-1.46,5.92,5.92,0,0,1-1.06-2.39,15.21,15.21,0,0,1-.3-3.29V39.59l3.34-.58Z"/><path d="M249.9,62.92c-.77.19-1.78.4-3,.61a26.51,26.51,0,0,1-4.36.33,9.39,9.39,0,0,1-3.63-.63,5.86,5.86,0,0,1-2.37-1.78,7.38,7.38,0,0,1-1.29-2.71,14,14,0,0,1-.4-3.47V44.8h3.34v9.77c0,2.27.36,3.9,1.08,4.88a4.21,4.21,0,0,0,3.63,1.47l1.11,0,1.08-.1c.33,0,.64-.06.91-.1a2.58,2.58,0,0,0,.6-.13V44.8h3.34Z"/><path d="M276.3,51a14.42,14.42,0,0,1-1,5.62,10.42,10.42,0,0,1-2.83,3.95,12.1,12.1,0,0,1-4.39,2.34,19.25,19.25,0,0,1-5.59.77c-1,0-2.11,0-3.32-.13a20.23,20.23,0,0,1-3.29-.48V38.94a20,20,0,0,1,3.27-.48c1.21-.08,2.32-.13,3.32-.13a19.2,19.2,0,0,1,5.59.77,12,12,0,0,1,4.39,2.34,10.26,10.26,0,0,1,2.84,4A14.4,14.4,0,0,1,276.3,51Zm-13.54,9.63q5,0,7.4-2.54A9.78,9.78,0,0,0,272.6,51a9.77,9.77,0,0,0-2.44-7.09q-2.45-2.54-7.4-2.55c-1,0-1.75,0-2.28,0l-1.13.07V60.53c.21,0,.59,0,1.13.07S261.78,60.64,262.76,60.64Z"/><path d="M301.91,51a14.42,14.42,0,0,1-1,5.62,10.42,10.42,0,0,1-2.83,3.95,12.1,12.1,0,0,1-4.39,2.34,19.25,19.25,0,0,1-5.59.77c-1,0-2.12,0-3.33-.13a20.27,20.27,0,0,1-3.28-.48V38.94a20.27,20.27,0,0,1,3.28-.48c1.21-.08,2.32-.13,3.33-.13a19.25,19.25,0,0,1,5.59.77,12.1,12.1,0,0,1,4.39,2.34,10.34,10.34,0,0,1,2.83,4A14.42,14.42,0,0,1,301.91,51Zm-13.54,9.63q5,0,7.4-2.54A9.83,9.83,0,0,0,298.21,51a9.81,9.81,0,0,0-2.44-7.09q-2.44-2.54-7.4-2.55c-1,0-1.75,0-2.29,0l-1.12.07V60.53c.21,0,.59,0,1.12.07S287.39,60.64,288.37,60.64Z"/><path d="M307.08,63.47V38.58h15.19v3H310.56V49H321v2.91H310.58v8.62h12.61v3Z"/></g></svg>