<svg id="Layer_1" data-name="Layer 1" xmlns="http://www.w3.org/2000/svg" viewBox="0 0 350 100"><defs><style>.cls-1{fill:#f4f4f4;}.cls-2{fill:#0097f4;}</style></defs><title>Artboard 3</title><g id="ubuntuDDE_Official_Logo_White" data-name="ubuntuDDE Official Logo White"><circle class="cls-1" cx="74.56" cy="50" r="46.56"/><rect class="cls-2" x="80.6" y="10.43" width="1.42" height="48.21" transform="translate(11.32 88.44) rotate(-60.61)"/><rect class="cls-2" x="79.34" y="14.16" width="1.42" height="48.28" transform="translate(7.54 89.47) rotate(-60.78)"/><rect class="cls-2" x="57.06" y="26.56" width="1.42" height="45.45"/><rect class="cls-2" x="61.01" y="26.52" width="1.42" height="45.45"/><circle class="cls-1" cx="60.21" cy="24.72" r="10.21"/><rect class="cls-2" x="56.17" y="57.55" width="47.57" height="1.42" transform="translate(-18.22 46.08) rotate(-29.01)"/><rect class="cls-2" x="58.11" y="60.98" width="47.57" height="1.42" transform="translate(-19.64 47.46) rotate(-29.01)"/><circle class="cls-1" cx="60.39" cy="71.99" r="10.21"/><circle class="cls-1" cx="101.74" cy="48.53" r="10.21"/><circle class="cls-2" cx="60.23" cy="24.75" r="8.95"/><circle class="cls-2" cx="101.78" cy="48.57" r="8.95"/><circle class="cls-2" cx="60.41" cy="72.03" r="8.95"/><path class="cls-1" d="M152.32,63.25c-.77.19-1.79.39-3.06.61a26.75,26.75,0,0,1-4.38.33,9.47,9.47,0,0,1-3.65-.64,5.79,5.79,0,0,1-2.39-1.79,7.21,7.21,0,0,1-1.3-2.72,14.72,14.72,0,0,1-.4-3.49V45h3.36v9.83c0,2.29.36,3.93,1.08,4.91a4.23,4.23,0,0,0,3.65,1.48l1.12,0,1.09-.09.92-.11a2.4,2.4,0,0,0,.59-.13V45h3.37Z"/><path class="cls-1" d="M161.44,45.85A9.15,9.15,0,0,1,163.3,45a8.77,8.77,0,0,1,2.87-.43,8.64,8.64,0,0,1,3.62.72,7.47,7.47,0,0,1,2.65,2,9,9,0,0,1,1.65,3.11,13.7,13.7,0,0,1,.56,4,11.87,11.87,0,0,1-.67,4.1,8.51,8.51,0,0,1-1.9,3.09,8.3,8.3,0,0,1-3,2,10.63,10.63,0,0,1-3.9.69,24.23,24.23,0,0,1-4.16-.33,29.71,29.71,0,0,1-3-.65V36.35l3.36-.58Zm0,15a8.79,8.79,0,0,0,1.43.27,16,16,0,0,0,2.29.13,5.58,5.58,0,0,0,4.34-1.79,7.28,7.28,0,0,0,1.62-5.07,11.78,11.78,0,0,0-.29-2.71,5.92,5.92,0,0,0-.94-2.19,4.49,4.49,0,0,0-1.68-1.44,5.42,5.42,0,0,0-2.47-.53,6.68,6.68,0,0,0-2.53.47,7.13,7.13,0,0,0-1.77,1Z"/><path class="cls-1" d="M194.32,63.25c-.78.19-1.79.39-3.06.61a26.87,26.87,0,0,1-4.39.33,9.53,9.53,0,0,1-3.65-.64,5.83,5.83,0,0,1-2.38-1.79,7.21,7.21,0,0,1-1.3-2.72,14.22,14.22,0,0,1-.4-3.49V45h3.36v9.83c0,2.29.36,3.93,1.08,4.91a4.23,4.23,0,0,0,3.66,1.49c.36,0,.73,0,1.12,0s.75-.05,1.08-.09l.92-.1a4,4,0,0,0,.6-.13V45h3.36Z"/><path class="cls-1" d="M200.08,45.56c.77-.2,1.8-.4,3.07-.62a26.15,26.15,0,0,1,4.42-.32,9.47,9.47,0,0,1,3.72.63A5.83,5.83,0,0,1,213.65,47a6.8,6.8,0,0,1,1.25,2.73,15.82,15.82,0,0,1,.36,3.5V63.8H211.9V54a15.48,15.48,0,0,0-.23-3,5.12,5.12,0,0,0-.78-2,3.14,3.14,0,0,0-1.44-1.1,6.32,6.32,0,0,0-2.24-.34c-.36,0-.74,0-1.12,0s-.76.05-1.11.09-.66.07-.93.12l-.6.11V63.8h-3.37Z"/><path class="cls-1" d="M224,45h7.12v2.81H224v8.67a10.64,10.64,0,0,0,.22,2.33,3.53,3.53,0,0,0,.65,1.45,2.39,2.39,0,0,0,1.08.74,5,5,0,0,0,1.52.22,7,7,0,0,0,2.44-.35c.61-.22,1-.4,1.28-.48l.65,2.78a13.27,13.27,0,0,1-1.77.63,10.08,10.08,0,0,1-2.89.4,8.75,8.75,0,0,1-3.16-.49,4.63,4.63,0,0,1-2-1.46,5.81,5.81,0,0,1-1.06-2.41,15.91,15.91,0,0,1-.31-3.3V39.78L224,39.2Z"/><path class="cls-1" d="M250.31,63.25c-.78.19-1.79.4-3.06.61a26.87,26.87,0,0,1-4.39.33,9.45,9.45,0,0,1-3.64-.64,5.79,5.79,0,0,1-2.39-1.79,7.21,7.21,0,0,1-1.3-2.72,14.16,14.16,0,0,1-.4-3.49V45h3.36v9.83c0,2.29.36,3.93,1.09,4.91a4.19,4.19,0,0,0,3.64,1.48c.37,0,.74,0,1.12,0l1.09-.09.92-.11a2.4,2.4,0,0,0,.59-.13V45h3.37Z"/><path class="cls-1" d="M276.86,51.26a14.59,14.59,0,0,1-1,5.66,10.56,10.56,0,0,1-2.86,4,12,12,0,0,1-4.41,2.35A19.46,19.46,0,0,1,263,64c-1,0-2.13,0-3.34-.13a19.44,19.44,0,0,1-3.31-.49V39.13a19.44,19.44,0,0,1,3.31-.49c1.21-.08,2.33-.13,3.34-.13a19.81,19.81,0,0,1,5.62.78A12.13,12.13,0,0,1,273,41.64a10.56,10.56,0,0,1,2.86,4A14.57,14.57,0,0,1,276.86,51.26ZM263.24,61q5,0,7.44-2.55a9.86,9.86,0,0,0,2.46-7.14,9.85,9.85,0,0,0-2.46-7.13c-1.64-1.69-4.12-2.55-7.44-2.56-1,0-1.75,0-2.29,0l-1.14.07V60.84c.21,0,.59,0,1.14.07S262.25,61,263.24,61Z"/><path class="cls-1" d="M302.61,51.26a14.4,14.4,0,0,1-1,5.66,10.43,10.43,0,0,1-2.85,4,12,12,0,0,1-4.42,2.35,19.41,19.41,0,0,1-5.62.78c-1,0-2.12,0-3.34-.13a19.32,19.32,0,0,1-3.3-.49V39.13a19.32,19.32,0,0,1,3.3-.49c1.22-.08,2.33-.13,3.34-.13a19.76,19.76,0,0,1,5.62.78,12.17,12.17,0,0,1,4.42,2.35,10.43,10.43,0,0,1,2.85,4A14.39,14.39,0,0,1,302.61,51.26ZM289,61q5,0,7.45-2.55a9.9,9.9,0,0,0,2.45-7.14,9.89,9.89,0,0,0-2.45-7.13c-1.64-1.69-4.12-2.55-7.45-2.56-1,0-1.75,0-2.29,0l-1.14.07V60.84c.22,0,.6,0,1.14.07S288,61,289,61Z"/><path class="cls-1" d="M307.82,63.8v-25H323.1v3H311.32V49.2H321.8v2.92H311.32v8.67H324v3Z"/></g></svg>