<svg id="Layer_1" data-name="Layer 1" xmlns="http://www.w3.org/2000/svg" viewBox="0 0 150 50"><defs><style>.cls-1{fill:#f4f4f4;}.cls-2{fill:#0097f4;}</style></defs><g id="ubuntuDDE_Official_Logo_White" data-name="ubuntuDDE Official Logo White"><circle class="cls-1" cx="24.64" cy="25" r="23.11"/><rect class="cls-2" x="27.64" y="5.36" width="0.7" height="23.93" transform="translate(-0.83 33.22) rotate(-60.61)"/><rect class="cls-2" x="27.02" y="7.21" width="0.71" height="23.97" transform="translate(-2.74 33.71) rotate(-60.78)"/><rect class="cls-2" x="15.96" y="13.36" width="0.71" height="22.56"/><rect class="cls-2" x="17.92" y="13.35" width="0.71" height="22.56"/><circle class="cls-1" cx="17.52" cy="12.45" r="5.07"/><rect class="cls-2" x="15.51" y="28.75" width="23.61" height="0.71" transform="translate(-10.69 16.9) rotate(-29.01)"/><rect class="cls-2" x="16.48" y="30.45" width="23.62" height="0.71" transform="translate(-11.39 17.58) rotate(-29.01)"/><circle class="cls-1" cx="17.61" cy="35.92" r="5.07"/><circle class="cls-1" cx="38.14" cy="24.27" r="5.07"/><circle class="cls-2" cx="17.53" cy="12.46" r="4.45"/><circle class="cls-2" cx="38.16" cy="24.29" r="4.45"/><circle class="cls-2" cx="17.62" cy="35.94" r="4.45"/><path class="cls-1" d="M63.24,31.58c-.38.09-.88.19-1.51.3a12.24,12.24,0,0,1-2.18.16,4.67,4.67,0,0,1-1.81-.31,2.89,2.89,0,0,1-1.18-.89,3.6,3.6,0,0,1-.65-1.35,7.24,7.24,0,0,1-.2-1.73V22.53h1.67V27.4a4.21,4.21,0,0,0,.54,2.44,2.08,2.08,0,0,0,1.81.74l.55,0,.54,0,.46-.05a1.36,1.36,0,0,0,.29-.06V22.53h1.67Z"/><path class="cls-1" d="M67.77,22.94a4.31,4.31,0,0,1,.93-.41,4.06,4.06,0,0,1,1.42-.22,4.29,4.29,0,0,1,1.8.36,3.67,3.67,0,0,1,1.31,1,4.24,4.24,0,0,1,.82,1.54,6.56,6.56,0,0,1,.28,2,5.93,5.93,0,0,1-.33,2,4.55,4.55,0,0,1-.94,1.53,4.32,4.32,0,0,1-1.48,1,5.27,5.27,0,0,1-1.93.34,12.91,12.91,0,0,1-2.06-.16q-.9-.16-1.47-.33V18.23l1.66-.29Zm0,7.46a5.89,5.89,0,0,0,.71.13,8.72,8.72,0,0,0,1.14.07,2.78,2.78,0,0,0,2.15-.89,3.6,3.6,0,0,0,.81-2.52,6.8,6.8,0,0,0-.14-1.35A3.26,3.26,0,0,0,72,24.76a2.25,2.25,0,0,0-.84-.72,2.71,2.71,0,0,0-1.22-.26,3.6,3.6,0,0,0-1.26.23,3.47,3.47,0,0,0-.88.49Z"/><path class="cls-1" d="M84.09,31.58c-.38.09-.89.19-1.51.3A13.25,13.25,0,0,1,80.4,32a4.63,4.63,0,0,1-1.81-.31,2.92,2.92,0,0,1-1.19-.89,3.43,3.43,0,0,1-.64-1.35,6.76,6.76,0,0,1-.2-1.73V22.53h1.67V27.4a4.3,4.3,0,0,0,.53,2.44,2.12,2.12,0,0,0,1.82.74l.55,0,.54,0,.46-.06a1.59,1.59,0,0,0,.3-.06V22.53h1.66Z"/><path class="cls-1" d="M87,22.79c.38-.09.89-.19,1.52-.3a12.35,12.35,0,0,1,2.19-.16,4.87,4.87,0,0,1,1.85.31,2.9,2.9,0,0,1,1.17.88,3.26,3.26,0,0,1,.62,1.35,7.35,7.35,0,0,1,.18,1.74v5.24H92.82V27a8.09,8.09,0,0,0-.11-1.47,2.46,2.46,0,0,0-.39-1A1.57,1.57,0,0,0,91.6,24a3.18,3.18,0,0,0-1.11-.17,5.15,5.15,0,0,0-.55,0l-.55,0-.47.06-.29.06v7.87H87Z"/><path class="cls-1" d="M98.81,22.53h3.54v1.39H98.81v4.3a5.63,5.63,0,0,0,.11,1.16,1.63,1.63,0,0,0,.33.72,1.16,1.16,0,0,0,.53.37,2.44,2.44,0,0,0,.76.1,3.32,3.32,0,0,0,1.21-.17l.63-.24.33,1.38a5.76,5.76,0,0,1-.88.31,4.68,4.68,0,0,1-1.44.2,4.23,4.23,0,0,1-1.57-.24,2.29,2.29,0,0,1-1-.72,2.88,2.88,0,0,1-.53-1.2,7.53,7.53,0,0,1-.15-1.64V19.93l1.66-.29Z"/><path class="cls-1" d="M111.89,31.58c-.39.09-.89.19-1.52.3a12.24,12.24,0,0,1-2.18.16,4.67,4.67,0,0,1-1.81-.31,3,3,0,0,1-1.18-.89,3.6,3.6,0,0,1-.65-1.35,7.24,7.24,0,0,1-.2-1.73V22.53H106V27.4a4.21,4.21,0,0,0,.54,2.44,2.1,2.1,0,0,0,1.81.74,5.43,5.43,0,0,0,.56,0l.53,0,.46-.05a1.59,1.59,0,0,0,.3-.06V22.53h1.67Z"/><path class="cls-1" d="M125.07,25.63a7.14,7.14,0,0,1-.51,2.81,5.3,5.3,0,0,1-1.41,2A6.09,6.09,0,0,1,121,31.57a9.45,9.45,0,0,1-2.79.39c-.51,0-1.06,0-1.66-.07a9.14,9.14,0,0,1-1.64-.24v-12a11.38,11.38,0,0,1,1.64-.24c.6,0,1.16-.06,1.66-.06a9.78,9.78,0,0,1,2.79.38,6,6,0,0,1,2.19,1.17,5.14,5.14,0,0,1,1.41,2A7.11,7.11,0,0,1,125.07,25.63Zm-6.76,4.8A4.91,4.91,0,0,0,122,29.17a4.93,4.93,0,0,0,1.22-3.54A4.89,4.89,0,0,0,122,22.09a4.87,4.87,0,0,0-3.69-1.27h-1.14l-.57,0v9.51l.57,0Z"/><path class="cls-1" d="M137.85,25.63a7.32,7.32,0,0,1-.5,2.81,5.21,5.21,0,0,1-1.42,2,6,6,0,0,1-2.19,1.16A9.36,9.36,0,0,1,131,32c-.5,0-1,0-1.66-.07a9.14,9.14,0,0,1-1.64-.24v-12a11.38,11.38,0,0,1,1.64-.24c.61,0,1.16-.06,1.66-.06a9.69,9.69,0,0,1,2.79.38,5.88,5.88,0,0,1,2.19,1.17,5.06,5.06,0,0,1,1.42,2A7.28,7.28,0,0,1,137.85,25.63Zm-6.76,4.8a5,5,0,0,0,3.7-1.26A4.93,4.93,0,0,0,136,25.63a4.89,4.89,0,0,0-1.22-3.54,4.91,4.91,0,0,0-3.7-1.27H130l-.56,0v9.51l.56,0Z"/><path class="cls-1" d="M140.43,31.85V19.42H148v1.49h-5.85V24.6h5.2v1.45h-5.2v4.31h6.3v1.49Z"/></g></svg>